<svg width="352.5" height="90" viewBox="0 0 352.5 85" xmlns="http://www.w3.org/2000/svg">
  <!-- Main Logo -->
  <g transform="translate(0, 0)" stroke-linecap="round" fill-rule="evenodd" font-size="9pt" stroke="#000" stroke-width="0.5mm" fill="#33ff4b">
    <path d="M 15 52.5 L 0 52.5 L 0 0 L 15 0 L 15 22.5 L 22.5 22.5 L 22.5 15 L 30 15 L 30 7.5 L 37.5 7.5 L 37.5 0 L 52.5 0 L 52.5 7.5 L 45 7.5 L 45 15 L 37.5 15 L 37.5 22.5 L 30 22.5 L 30 30 L 37.5 30 L 37.5 37.5 L 45 37.5 L 45 45 L 52.5 45 L 52.5 52.5 L 30 52.5 L 30 45 L 22.5 45 L 22.5 37.5 L 15 37.5 L 15 52.5 Z M 247.5 52.5 L 240 52.5 L 240 15 L 285 15 L 285 22.5 L 292.5 22.5 L 292.5 52.5 L 277.5 52.5 L 277.5 22.5 L 270 22.5 L 270 52.5 L 255 52.5 L 255 22.5 L 247.5 22.5 L 247.5 52.5 Z M 232.5 52.5 L 187.5 52.5 L 187.5 45 L 180 45 L 180 37.5 L 187.5 37.5 L 187.5 30 L 217.5 30 L 217.5 22.5 L 187.5 22.5 L 187.5 15 L 225 15 L 225 22.5 L 232.5 22.5 L 232.5 52.5 Z M 352.5 52.5 L 307.5 52.5 L 307.5 45 L 300 45 L 300 37.5 L 307.5 37.5 L 307.5 30 L 337.5 30 L 337.5 22.5 L 307.5 22.5 L 307.5 15 L 345 15 L 345 22.5 L 352.5 22.5 L 352.5 52.5 Z M 172.5 52.5 L 127.5 52.5 L 127.5 45 L 120 45 L 120 22.5 L 127.5 22.5 L 127.5 15 L 157.5 15 L 157.5 0 L 172.5 0 L 172.5 52.5 Z M 105 52.5 L 67.5 52.5 L 67.5 45 L 60 45 L 60 22.5 L 67.5 22.5 L 67.5 15 L 105 15 L 105 22.5 L 112.5 22.5 L 112.5 45 L 105 45 L 105 52.5 Z M 75 22.5 L 75 45 L 97.5 45 L 97.5 22.5 L 75 22.5 Z M 135 22.5 L 135 45 L 157.5 45 L 157.5 22.5 L 135 22.5 Z M 195 37.5 L 195 45 L 217.5 45 L 217.5 37.5 L 195 37.5 Z M 315 37.5 L 315 45 L 337.5 45 L 337.5 37.5 L 315 37.5 Z" vector-effect="non-scaling-stroke"/>
  </g>

  <!-- Subtext -->
  <g transform="translate(115, 60)" stroke-linecap="round" fill-rule="evenodd" font-size="6pt" stroke="#000" stroke-width="0.5mm" fill="#ffffff">
    <path d="M 52.5 26.25 L 33.75 26.25 L 33.75 22.5 L 30 22.5 L 30 18.75 L 37.5 18.75 L 37.5 22.5 L 48.75 22.5 L 48.75 15 L 33.75 15 L 33.75 11.25 L 30 11.25 L 30 3.75 L 33.75 3.75 L 33.75 0 L 52.5 0 L 52.5 3.75 L 56.25 3.75 L 56.25 7.5 L 48.75 7.5 L 48.75 3.75 L 37.5 3.75 L 37.5 11.25 L 52.5 11.25 L 52.5 15 L 56.25 15 L 56.25 22.5 L 52.5 22.5 L 52.5 26.25 Z M 146.25 26.25 L 120 26.25 L 120 18.75 L 123.75 18.75 L 123.75 15 L 127.5 15 L 127.5 11.25 L 135 11.25 L 135 7.5 L 138.75 7.5 L 138.75 3.75 L 127.5 3.75 L 127.5 7.5 L 120 7.5 L 120 3.75 L 123.75 3.75 L 123.75 0 L 142.5 0 L 142.5 3.75 L 146.25 3.75 L 146.25 11.25 L 142.5 11.25 L 142.5 15 L 138.75 15 L 138.75 18.75 L 131.25 18.75 L 131.25 22.5 L 146.25 22.5 L 146.25 26.25 Z M 206.25 26.25 L 180 26.25 L 180 18.75 L 183.75 18.75 L 183.75 15 L 187.5 15 L 187.5 11.25 L 195 11.25 L 195 7.5 L 198.75 7.5 L 198.75 3.75 L 187.5 3.75 L 187.5 7.5 L 180 7.5 L 180 3.75 L 183.75 3.75 L 183.75 0 L 202.5 0 L 202.5 3.75 L 206.25 3.75 L 206.25 11.25 L 202.5 11.25 L 202.5 15 L 198.75 15 L 198.75 18.75 L 191.25 18.75 L 191.25 22.5 L 206.25 22.5 L 206.25 26.25 Z M 236.25 26.25 L 210 26.25 L 210 18.75 L 213.75 18.75 L 213.75 15 L 217.5 15 L 217.5 11.25 L 225 11.25 L 225 7.5 L 228.75 7.5 L 228.75 3.75 L 217.5 3.75 L 217.5 7.5 L 210 7.5 L 210 3.75 L 213.75 3.75 L 213.75 0 L 232.5 0 L 232.5 3.75 L 236.25 3.75 L 236.25 11.25 L 232.5 11.25 L 232.5 15 L 228.75 15 L 228.75 18.75 L 221.25 18.75 L 221.25 22.5 L 236.25 22.5 L 236.25 26.25 Z M 26.25 26.25 L 0 26.25 L 0 0 L 26.25 0 L 26.25 3.75 L 7.5 3.75 L 7.5 11.25 L 22.5 11.25 L 22.5 15 L 7.5 15 L 7.5 22.5 L 26.25 22.5 L 26.25 26.25 Z M 168.75 26.25 L 157.5 26.25 L 157.5 22.5 L 153.75 22.5 L 153.75 18.75 L 150 18.75 L 150 7.5 L 153.75 7.5 L 153.75 3.75 L 157.5 3.75 L 157.5 0 L 168.75 0 L 168.75 3.75 L 172.5 3.75 L 172.5 7.5 L 176.25 7.5 L 176.25 18.75 L 172.5 18.75 L 172.5 22.5 L 168.75 22.5 L 168.75 26.25 Z M 78.75 26.25 L 71.25 26.25 L 71.25 3.75 L 63.75 3.75 L 63.75 0 L 86.25 0 L 86.25 3.75 L 78.75 3.75 L 78.75 26.25 Z M 157.5 3.75 L 165 3.75 L 165 7.5 L 168.75 7.5 L 168.75 22.5 L 161.25 22.5 L 161.25 18.75 L 157.5 18.75 L 157.5 3.75 Z M 105 26.25 L 97.5 26.25 L 97.5 18.75 L 105 18.75 L 105 26.25 Z" vector-effect="non-scaling-stroke"/>
  </g>
</svg>
