<svg width="487.5" height="124" viewBox="0 0 487.5 87.5" xmlns="http://www.w3.org/2000/svg">
  <!-- Main Logo -->
  <g transform="matrix(1,0,0,1,0,-15)" stroke-linecap="round" fill-rule="evenodd" font-size="30pt" stroke="#333333" stroke-width="1mm" fill="#33ff4b">
    <path d="M 312.5 87.5 L 300 87.5 L 300 25 L 375 25 L 375 37.5 L 387.5 37.5 L 387.5 87.5 L 362.5 87.5 L 362.5 37.5 L 350 37.5 L 350 87.5 L 325 87.5 L 325 37.5 L 312.5 37.5 L 312.5 87.5 Z M 287.5 87.5 L 212.5 87.5 L 212.5 75 L 200 75 L 200 62.5 L 212.5 62.5 L 212.5 50 L 262.5 50 L 262.5 37.5 L 212.5 37.5 L 212.5 25 L 275 25 L 275 37.5 L 287.5 37.5 L 287.5 87.5 Z M 487.5 87.5 L 412.5 87.5 L 412.5 75 L 400 75 L 400 62.5 L 412.5 62.5 L 412.5 50 L 462.5 50 L 462.5 37.5 L 412.5 37.5 L 412.5 25 L 475 25 L 475 37.5 L 487.5 37.5 L 487.5 87.5 Z M 187.5 87.5 L 112.5 87.5 L 112.5 75 L 100 75 L 100 37.5 L 112.5 37.5 L 112.5 25 L 162.5 25 L 162.5 0 L 187.5 0 L 187.5 87.5 Z M 75 87.5 L 12.5 87.5 L 12.5 75 L 0 75 L 0 37.5 L 12.5 37.5 L 12.5 25 L 75 25 L 75 37.5 L 87.5 37.5 L 87.5 75 L 75 75 L 75 87.5 Z M 25 37.5 L 25 75 L 62.5 75 L 62.5 37.5 L 25 37.5 Z M 125 37.5 L 125 75 L 162.5 75 L 162.5 37.5 L 125 37.5 Z M 225 62.5 L 225 75 L 262.5 75 L 262.5 62.5 L 225 62.5 Z M 425 62.5 L 425 75 L 462.5 75 L 462.5 62.5 L 425 62.5 Z"/>
  </g>


  <!-- Subtext -->
  <g transform="translate(250,78)" stroke-linecap="round" fill-rule="evenodd" font-size="6pt" stroke="#333333" stroke-width="0.5mm" fill="#ffffff">
    <path d="M 52.5 26.3 L 33.8 26.3 L 33.8 22.5 L 30 22.5 L 30 18.8 L 37.5 18.8 L 37.5 22.5 L 48.8 22.5 L 48.8 15 L 33.8 15 L 33.8 11.3 L 30 11.3 L 30 3.8 L 33.8 3.8 L 33.8 0 L 52.5 0 L 52.5 3.8 L 56.3 3.8 L 56.3 7.5 L 48.8 7.5 L 48.8 3.8 L 37.5 3.8 L 37.5 11.3 L 52.5 11.3 L 52.5 15 L 56.3 15 L 56.3 22.5 L 52.5 22.5 L 52.5 26.3 Z M 146.3 26.3 L 120 26.3 L 120 18.8 L 123.8 18.8 L 123.8 15 L 127.5 15 L 127.5 11.3 L 135 11.3 L 135 7.5 L 138.8 7.5 L 138.8 3.8 L 127.5 3.8 L 127.5 7.5 L 120 7.5 L 120 3.8 L 123.8 3.8 L 123.8 0 L 142.5 0 L 142.5 3.8 L 146.3 3.8 L 146.3 11.3 L 142.5 11.3 L 142.5 15 L 138.8 15 L 138.8 18.8 L 131.3 18.8 L 131.3 22.5 L 146.3 22.5 L 146.3 26.3 Z M 206.3 26.3 L 180 26.3 L 180 18.8 L 183.8 18.8 L 183.8 15 L 187.5 15 L 187.5 11.3 L 195 11.3 L 195 7.5 L 198.8 7.5 L 198.8 3.8 L 187.5 3.8 L 187.5 7.5 L 180 7.5 L 180 3.8 L 183.8 3.8 L 183.8 0 L 202.5 0 L 202.5 3.8 L 206.3 3.8 L 206.3 11.3 L 202.5 11.3 L 202.5 15 L 198.8 15 L 198.8 18.8 L 191.3 18.8 L 191.3 22.5 L 206.3 22.5 L 206.3 26.3 Z M 236.3 26.3 L 210 26.3 L 210 18.8 L 213.8 18.8 L 213.8 15 L 217.5 15 L 217.5 11.3 L 225 11.3 L 225 7.5 L 228.8 7.5 L 228.8 3.8 L 217.5 3.8 L 217.5 7.5 L 210 7.5 L 210 3.8 L 213.8 3.8 L 213.8 0 L 232.5 0 L 232.5 3.8 L 236.3 3.8 L 236.3 11.3 L 232.5 11.3 L 232.5 15 L 228.8 15 L 228.8 18.8 L 221.3 18.8 L 221.3 22.5 L 236.3 22.5 L 236.3 26.3 Z M 26.3 26.3 L 0 26.3 L 0 0 L 26.3 0 L 26.3 3.8 L 7.5 3.8 L 7.5 11.3 L 22.5 11.3 L 22.5 15 L 7.5 15 L 7.5 22.5 L 26.3 22.5 L 26.3 26.3 Z M 168.8 26.3 L 157.5 26.3 L 157.5 22.5 L 153.8 22.5 L 153.8 18.8 L 150 18.8 L 150 7.5 L 153.8 7.5 L 153.8 3.8 L 157.5 3.8 L 157.5 0 L 168.8 0 L 168.8 3.8 L 172.5 3.8 L 172.5 7.5 L 176.3 7.5 L 176.3 18.8 L 172.5 18.8 L 172.5 22.5 L 168.8 22.5 L 168.8 26.3 Z M 78.8 26.3 L 71.3 26.3 L 71.3 3.8 L 63.8 3.8 L 63.8 0 L 86.3 0 L 86.3 3.8 L 78.8 3.8 L 78.8 26.3 Z M 157.5 3.8 L 165 3.8 L 165 7.5 L 168.8 7.5 L 168.8 22.5 L 161.3 22.5 L 161.3 18.8 L 157.5 18.8 L 157.5 3.8 Z M 105 26.3 L 97.5 26.3 L 97.5 18.8 L 105 18.8 L 105 26.3 Z" vector-effect="non-scaling-stroke"/>
  </g>
</svg>
