<svg width="352.5" height="52.5" viewBox="0 0 352.5 52.5" xmlns="http://www.w3.org/2000/svg"><g id="svgGroup" stroke-linecap="round" fill-rule="evenodd" font-size="9pt" stroke="#000" stroke-width="0.5mm" fill="#9cd56a" style="stroke:#000;stroke-width:0.5mm;fill:#9cd56a"><path d="M 15 52.5 L 0 52.5 L 0 0 L 15 0 L 15 22.5 L 22.5 22.5 L 22.5 15 L 30 15 L 30 7.5 L 37.5 7.5 L 37.5 0 L 52.5 0 L 52.5 7.5 L 45 7.5 L 45 15 L 37.5 15 L 37.5 22.5 L 30 22.5 L 30 30 L 37.5 30 L 37.5 37.5 L 45 37.5 L 45 45 L 52.5 45 L 52.5 52.5 L 30 52.5 L 30 45 L 22.5 45 L 22.5 37.5 L 15 37.5 L 15 52.5 Z M 247.5 52.5 L 240 52.5 L 240 15 L 285 15 L 285 22.5 L 292.5 22.5 L 292.5 52.5 L 277.5 52.5 L 277.5 22.5 L 270 22.5 L 270 52.5 L 255 52.5 L 255 22.5 L 247.5 22.5 L 247.5 52.5 Z M 232.5 52.5 L 187.5 52.5 L 187.5 45 L 180 45 L 180 37.5 L 187.5 37.5 L 187.5 30 L 217.5 30 L 217.5 22.5 L 187.5 22.5 L 187.5 15 L 225 15 L 225 22.5 L 232.5 22.5 L 232.5 52.5 Z M 352.5 52.5 L 307.5 52.5 L 307.5 45 L 300 45 L 300 37.5 L 307.5 37.5 L 307.5 30 L 337.5 30 L 337.5 22.5 L 307.5 22.5 L 307.5 15 L 345 15 L 345 22.5 L 352.5 22.5 L 352.5 52.5 Z M 172.5 52.5 L 127.5 52.5 L 127.5 45 L 120 45 L 120 22.5 L 127.5 22.5 L 127.5 15 L 157.5 15 L 157.5 0 L 172.5 0 L 172.5 52.5 Z M 105 52.5 L 67.5 52.5 L 67.5 45 L 60 45 L 60 22.5 L 67.5 22.5 L 67.5 15 L 105 15 L 105 22.5 L 112.5 22.5 L 112.5 45 L 105 45 L 105 52.5 Z M 75 22.5 L 75 45 L 97.5 45 L 97.5 22.5 L 75 22.5 Z M 135 22.5 L 135 45 L 157.5 45 L 157.5 22.5 L 135 22.5 Z M 195 37.5 L 195 45 L 217.5 45 L 217.5 37.5 L 195 37.5 Z M 315 37.5 L 315 45 L 337.5 45 L 337.5 37.5 L 315 37.5 Z" vector-effect="non-scaling-stroke"/></g></svg>
