<svg width="587.5" height="124" viewBox="0 0 587.5 87.5" xmlns="http://www.w3.org/2000/svg">
  <!-- Main Logo -->
  <g transform="translate(0, -15)" stroke-linecap="round" fill-rule="evenodd" font-size="30pt" stroke="#000" stroke-width="1mm" fill="#33ff4b">
    <path d="M 25 87.5 L 0 87.5 L 0 0 L 25 0 L 25 37.5 L 37.5 37.5 L 37.5 25 L 50 25 L 50 12.5 L 62.5 12.5 L 62.5 0 L 87.5 0 L 87.5 12.5 L 75 12.5 L 75 25 L 62.5 25 L 62.5 37.5 L 50 37.5 L 50 50 L 62.5 50 L 62.5 62.5 L 75 62.5 L 75 75 L 87.5 75 L 87.5 87.5 L 50 87.5 L 50 75 L 37.5 75 L 37.5 62.5 L 25 62.5 L 25 87.5 Z M 412.5 87.5 L 400 87.5 L 400 25 L 475 25 L 475 37.5 L 487.5 37.5 L 487.5 87.5 L 462.5 87.5 L 462.5 37.5 L 450 37.5 L 450 87.5 L 425 87.5 L 425 37.5 L 412.5 37.5 L 412.5 87.5 Z M 387.5 87.5 L 312.5 87.5 L 312.5 75 L 300 75 L 300 62.5 L 312.5 62.5 L 312.5 50 L 362.5 50 L 362.5 37.5 L 312.5 37.5 L 312.5 25 L 375 25 L 375 37.5 L 387.5 37.5 L 387.5 87.5 Z M 587.5 87.5 L 512.5 87.5 L 512.5 75 L 500 75 L 500 62.5 L 512.5 62.5 L 512.5 50 L 562.5 50 L 562.5 37.5 L 512.5 37.5 L 512.5 25 L 575 25 L 575 37.5 L 587.5 37.5 L 587.5 87.5 Z M 287.5 87.5 L 212.5 87.5 L 212.5 75 L 200 75 L 200 37.5 L 212.5 37.5 L 212.5 25 L 262.5 25 L 262.5 0 L 287.5 0 L 287.5 87.5 Z M 175 87.5 L 112.5 87.5 L 112.5 75 L 100 75 L 100 37.5 L 112.5 37.5 L 112.5 25 L 175 25 L 175 37.5 L 187.5 37.5 L 187.5 75 L 175 75 L 175 87.5 Z M 125 37.5 L 125 75 L 162.5 75 L 162.5 37.5 L 125 37.5 Z M 225 37.5 L 225 75 L 262.5 75 L 262.5 37.5 L 225 37.5 Z M 325 62.5 L 325 75 L 362.5 75 L 362.5 62.5 L 325 62.5 Z M 525 62.5 L 525 75 L 562.5 75 L 562.5 62.5 L 525 62.5 Z"/>
  </g>

  <!-- Subtext -->
  <g transform="translate(350, 78)" stroke-linecap="round" fill-rule="evenodd" font-size="6pt" stroke="#000" stroke-width="0.5mm" fill="#ffffff">
    <path d="M 52.5 26.25 L 33.75 26.25 L 33.75 22.5 L 30 22.5 L 30 18.75 L 37.5 18.75 L 37.5 22.5 L 48.75 22.5 L 48.75 15 L 33.75 15 L 33.75 11.25 L 30 11.25 L 30 3.75 L 33.75 3.75 L 33.75 0 L 52.5 0 L 52.5 3.75 L 56.25 3.75 L 56.25 7.5 L 48.75 7.5 L 48.75 3.75 L 37.5 3.75 L 37.5 11.25 L 52.5 11.25 L 52.5 15 L 56.25 15 L 56.25 22.5 L 52.5 22.5 L 52.5 26.25 Z M 146.25 26.25 L 120 26.25 L 120 18.75 L 123.75 18.75 L 123.75 15 L 127.5 15 L 127.5 11.25 L 135 11.25 L 135 7.5 L 138.75 7.5 L 138.75 3.75 L 127.5 3.75 L 127.5 7.5 L 120 7.5 L 120 3.75 L 123.75 3.75 L 123.75 0 L 142.5 0 L 142.5 3.75 L 146.25 3.75 L 146.25 11.25 L 142.5 11.25 L 142.5 15 L 138.75 15 L 138.75 18.75 L 131.25 18.75 L 131.25 22.5 L 146.25 22.5 L 146.25 26.25 Z M 206.25 26.25 L 180 26.25 L 180 18.75 L 183.75 18.75 L 183.75 15 L 187.5 15 L 187.5 11.25 L 195 11.25 L 195 7.5 L 198.75 7.5 L 198.75 3.75 L 187.5 3.75 L 187.5 7.5 L 180 7.5 L 180 3.75 L 183.75 3.75 L 183.75 0 L 202.5 0 L 202.5 3.75 L 206.25 3.75 L 206.25 11.25 L 202.5 11.25 L 202.5 15 L 198.75 15 L 198.75 18.75 L 191.25 18.75 L 191.25 22.5 L 206.25 22.5 L 206.25 26.25 Z M 236.25 26.25 L 210 26.25 L 210 18.75 L 213.75 18.75 L 213.75 15 L 217.5 15 L 217.5 11.25 L 225 11.25 L 225 7.5 L 228.75 7.5 L 228.75 3.75 L 217.5 3.75 L 217.5 7.5 L 210 7.5 L 210 3.75 L 213.75 3.75 L 213.75 0 L 232.5 0 L 232.5 3.75 L 236.25 3.75 L 236.25 11.25 L 232.5 11.25 L 232.5 15 L 228.75 15 L 228.75 18.75 L 221.25 18.75 L 221.25 22.5 L 236.25 22.5 L 236.25 26.25 Z M 26.25 26.25 L 0 26.25 L 0 0 L 26.25 0 L 26.25 3.75 L 7.5 3.75 L 7.5 11.25 L 22.5 11.25 L 22.5 15 L 7.5 15 L 7.5 22.5 L 26.25 22.5 L 26.25 26.25 Z M 168.75 26.25 L 157.5 26.25 L 157.5 22.5 L 153.75 22.5 L 153.75 18.75 L 150 18.75 L 150 7.5 L 153.75 7.5 L 153.75 3.75 L 157.5 3.75 L 157.5 0 L 168.75 0 L 168.75 3.75 L 172.5 3.75 L 172.5 7.5 L 176.25 7.5 L 176.25 18.75 L 172.5 18.75 L 172.5 22.5 L 168.75 22.5 L 168.75 26.25 Z M 78.75 26.25 L 71.25 26.25 L 71.25 3.75 L 63.75 3.75 L 63.75 0 L 86.25 0 L 86.25 3.75 L 78.75 3.75 L 78.75 26.25 Z M 157.5 3.75 L 165 3.75 L 165 7.5 L 168.75 7.5 L 168.75 22.5 L 161.25 22.5 L 161.25 18.75 L 157.5 18.75 L 157.5 3.75 Z M 105 26.25 L 97.5 26.25 L 97.5 18.75 L 105 18.75 L 105 26.25 Z" vector-effect="non-scaling-stroke"/>
  </g>
</svg>
