<svg xmlns="http://www.w3.org/2000/svg" width="170" height="170" viewBox="0 0 170 170">
<ellipse cx="86.4" cy="85.5" rx="77.6" ry="78.3" fill="rgb(69, 219, 242)"/>
<path d="M 157.4 56.7 C 157.4 56.7 153 51.7 153 51.7 S 155 48.7 155 48.7 S 154.1 46.5 154.1 46.5 S 135.6 36.7 135.6 36.7 S 129.4 35 129.4 35 S 132.8 70 132.8 70 S 151.3 79.1 151.3 79.1 S 158.5 80.6 158.5 80.6 S 161.3 79.1 161.3 79.1 S 140.6 63.5 140.6 63.5 S 139.8 54.4 139.8 54.4 S 157 59.4 157 59.4" fill="#847e6b"/>
<path d="M 120 17 L 122.7 17.7 L 124.1 19.4 L 124.2 19.5 L 127.1 22.9 L 127.8 24 L 128.2 24.7 L 129.8 27.7 L 130.4 29.3 L 131.7 31.8 L 132.4 33.1 L 132.8 33.6 L 133.5 34.4 L 133.8 34.7 L 134.4 35 L 134.7 35 L 135.9 35.3 L 137 35.7 L 142.5 38.3 L 154.8 45.9 L 155.9 46.8 L 157.5 48.1 L 158.2 48.8 L 158.8 49.7 L 159 50.1 L 158.6 50.7 L 157 51 L 156.4 51 L 155.6 51.1 L 155.3 51.2 L 155.1 51.6 L 155.2 51.8 L 155.7 52.7 L 157.3 54.6 L 157.9 55.3 L 158.9 57 L 159.1 57.5 L 159.4 58.3 L 159.6 59.3 L 159.6 59.6 L 159.3 60.8 L 157.9 60.8 L 156.7 60.6 L 155.4 60.4 L 154.6 60.2 L 144.4 57 L 143.7 56.7 L 142.4 56.3 L 142 56.2 L 141.4 56 L 141.3 56 L 141.2 56.3 L 141.1 56.7 L 141.1 57 L 141.1 58.4 L 141.1 59.3 L 141.4 61.2 L 142 62.4 L 142.7 63 L 143.4 63.7 L 144 64.1 L 145.1 65 L 145.8 65.5 L 147.3 66.5 L 148.2 67.1 L 150.1 68.4 L 151.3 69.2 L 154.1 71 L 155.3 71.8 L 157.8 73.3 L 158.7 73.9 L 160.6 75 L 163.6 77.4 L 164.6 80.9 L 162.2 82.4 L 158.9 82.6 L 155.2 82 L 151.6 81.1 L 150.6 80.9 L 148.7 80.4 L 147.6 80 L 145.5 79.2 L 144.2 78.6 L 140.9 77.2 L 139.3 76.6 L 138.6 76.4 L 137.5 76.3 L 136.9 76.4 L 136 76.6 L 135.4 76.8 L 132.5 77.7 L 130.3 78.1 L 129.1 78.1 L 126.7 78 L 125.3 77.9 L 122.7 77.5 L 121.4 77.2 L 118.7 76.5 L 117.3 76 L 114.6 75 L 113.3 74.5 L 110.8 73.2 L 109.6 72.5 L 107.2 71 L 106.2 70.1 L 103.2 67.9 L 102.5 67.4 L 102.2 67.3 L 101.8 67 L 101.7 67 L 101.8 67.4 L 101.9 68 L 102.1 68.4 L 102.5 69.3 L 102.8 69.9 L 103.3 71 L 103.6 71.7 L 105.4 76.4 L 106 79.6 L 106 81.2 L 106.1 84 L 106.3 85.2 L 106.6 85.7 L 107.4 86.5 L 108.1 86.9 L 108.8 87.4 L 109.3 87.6 L 110.3 88.1 L 110.9 88.5 L 115 91 L 116.2 91.9 L 116.6 92.3 L 117.5 93.1 L 117.8 93.5 L 118.5 94.1 L 119.3 94.7 L 119.8 95.1 L 121 95.8 L 121.6 96.2 L 123.1 97.1 L 123.9 97.6 L 127.4 99.6 L 129.4 100.7 L 133.6 102.9 L 135.9 104 L 139.2 105.7 L 141.2 106.7 L 142.1 107.2 L 143.8 108 L 144.6 108.4 L 146 109.2 L 146.7 109.6 L 148.9 111 L 149.7 111.6 L 151.1 112.9 L 151.4 113.5 L 151.9 114.8 L 151.9 115.6 L 151.6 117.1 L 151.3 118 L 150.4 120 L 149.8 121.1 L 148.4 123.7 L 147.5 125.2 L 145.8 128.3 L 144.7 130.2 L 144.3 131 L 143.6 132.3 L 143.4 132.8 L 143 133.5 L 143 133.5 L 143.5 133.9 L 158.3 138.6 L 160.3 139.2 L 161.2 139.5 L 162.7 140.1 L 163.4 140.3 L 164.5 140.8 L 164.9 141 L 165.7 141.4 L 166.3 141.8 L 166.8 142.7 L 167 144.5 L 167 145.2 L 166.9 146.4 L 166.9 146.9 L 166.7 147.8 L 166.5 148.2 L 166.1 148.7 L 129.1 143.9 L 124 146.2 L 120.2 147.7 L 118.1 148.4 L 113.8 149.8 L 111.5 150.5 L 107 151.7 L 104.7 152.3 L 100.1 153.3 L 97.8 153.8 L 93.3 154.6 L 91.1 154.9 L 86.9 155.5 L 84.9 155.7 L 81.1 156 L 79.4 156 L 76.1 155.9 L 74.4 155.7 L 73.7 155.5 L 72.3 155 L 71.6 154.6 L 70.2 153.7 L 69.4 153.1 L 65.9 150.3 L 64.8 149.3 L 64.3 148.9 L 63.4 148 L 63.1 147.6 L 61.6 146.3 L 60.7 145.7 L 60.1 145.5 L 58.9 145.2 L 58.1 145.1 L 56.4 145 L 55.3 145 L 50.9 144.6 L 48 143.8 L 46.5 143.2 L 43.5 141.7 L 41.8 140.7 L 40 139.6 L 39.1 138.9 L 37.2 137.6 L 36.2 136.8 L 31.4 133.8 L 29.8 133.1 L 29.1 132.8 L 27.8 132.3 L 27.3 132.3 L 24 131.7 L 24 131.7 L 23.4 131.3 L 22 131 L 21.6 131 L 20.5 130.8 L 19.9 130.7 L 18.6 130.3 L 17.2 129.9 L 14.1 128.7 L 12.5 128 L 9.6 126.5 L 8.9 126.1 L 7.6 125.3 L 6.1 124.2 L 5.3 123.6 L 4.3 122.6 L 3.8 122.1 L 3.3 121.1 L 3 120.6 L 2.9 119.4 L 2.8 117.1 L 2.9 116 L 3.3 113.8 L 3.5 112.7 L 4.3 110.5 L 4.8 109.4 L 6.1 107.1 L 8.5 103.5 L 12.2 99.4 L 12.8 98.4 L 13.1 97.6 L 13.4 96.7 L 13.5 96.1 L 13.7 94.9 L 14.4 89.3 L 15.1 83.3 L 15.8 79.5 L 16.3 77.7 L 17.3 74 L 17.9 72.3 L 19.2 68.9 L 20 67.2 L 21.7 64 L 22.7 62.4 L 24.7 59.3 L 25.8 57.7 L 28.2 54.7 L 29.5 53.3 L 32.2 50.4 L 33.7 48.9 L 39.9 43.7 L 44.3 40.6 L 46.6 39.3 L 51.2 36.9 L 53.6 35.9 L 58.5 34.1 L 61.1 33.5 L 64.3 32.8 L 66.7 32.4 L 68 32.3 L 73.3 31.8 L 76.1 31.8 L 81.6 31.8 L 84.1 32 L 86.6 32.2 L 87.7 32.4 L 89.8 32.7 L 90.8 32.9 L 96 34.2 L 102 28.7 L 104.8 26.3 L 106.8 24.7 L 107.9 24 L 110.1 22.5 L 111.1 21.9 L 113.1 20.7 L 113.9 20.3 M 139.2 65.2 L 137.9 66.2 L 137.3 67.6 L 137.2 68.6 L 137.2 70.3 L 137.4 71.2 L 137.8 71.6 L 138.6 72.4 L 139.3 72.8 L 140.1 73.3 L 140.6 73.6 L 141.5 74.2 L 142.1 74.5 L 147 76.8 L 148.7 77.6 L 149.4 77.9 L 150.9 78.4 L 151.4 78.6 L 153.7 79.3 L 154.7 79.5 L 156.6 79.8 L 157.4 79.9 L 158.8 79.9 L 159.3 79.8 L 160.2 79.5 L 160.3 79.2 L 160.3 78.9 L 160 78.5 L 159.7 78.3 L 158.5 77.2 L 157.6 76.5 L 155.7 75 L 154.5 74.2 L 152.1 72.5 L 150.8 71.6 L 148.2 69.9 L 147 69.2 L 144.5 67.7 L 143.5 67.1 L 141.5 66 L 140.7 65.6 L 140.1 65.3 L 139.8 65.3 L 139.3 65.2 M 139.5 48.4 L 139 48.9 L 139 49.2 L 139.5 51.2 L 140.4 52.4 L 141.1 53 L 142.8 54 L 143.9 54.5 L 146.4 55.5 L 148 55.9 L 150.1 56.5 L 150.9 56.8 L 152.6 57.2 L 153.2 57.4 L 154.4 57.7 L 154.8 57.8 L 155.6 57.9 L 155.9 57.9 L 156.3 57.8 L 156.4 57.7 L 156.5 57.5 L 156.5 57.4 L 156.3 57 L 156.1 56.8 L 155.7 56.2 L 155.4 55.9 L 153.4 54.1 L 151.9 52.9 L 151 52.4 L 147.3 50.3 L 145.6 49.6 L 143.8 49 L 143 48.7 L 141.6 48.4 L 140.9 48.3 L 139.9 48.3 M 131.5 37.1 L 131.3 37.2 L 131.1 37.6 L 131.1 38 L 131.1 38.9 L 131.2 39.6 L 131.6 41.4 L 131.9 41.9 L 132.2 42.1 L 132.7 42.5 L 133.1 42.7 L 134 43.2 L 134.6 43.4 L 135.9 43.9 L 136.7 44.2 L 138.5 44.8 L 139.6 45.1 L 142.1 45.9 L 143.5 46.3 L 146.2 47.1 L 147.2 47.3 L 149.2 47.8 L 149.9 47.8 L 151.1 47.9 L 151.5 47.8 L 152 47.5 L 152 47.3 L 151.3 46.5 L 150.3 45.8 L 149.6 45.3 L 148.1 44.3 L 147.2 43.8 L 145.2 42.7 L 144.2 42.1 L 140 39.9 L 138.2 39 L 136.4 38.2 L 135.7 37.9 L 134.3 37.4 L 133.9 37.3 L 132.2 37.1 Z" fill="rgb(0, 3, 4)"/>
<path d="M 132 128.8 L 132 128.9 L 131.8 129.4 L 131.7 129.7 L 131.3 130.4 L 129.5 133.2 L 128.8 134.3 L 127.8 135.9 L 127.4 136.7 L 127.1 137.7 L 127.1 138.1 L 127.5 138.7 L 128.8 139.2 L 129.1 139.3 L 129.4 139.6 L 129.5 139.7 L 129.3 140.1 L 129.2 140.3 L 128.6 140.7 L 128.2 141 L 127.2 141.5 L 126.7 141.8 L 125.3 142.4 L 124.6 142.8 L 123 143.4 L 121.2 144.1 L 117.2 145.6 L 115 146.3 L 110.4 147.7 L 108 148.4 L 103.2 149.8 L 100.8 150.4 L 96.2 151.4 L 90 152.5 L 88.3 152.8 L 85.5 153.1 L 84.2 153.3 L 82 153.6 L 81 153.7 L 79.3 153.8 L 78.6 153.8 L 77.4 153.8 L 76.8 153.8 L 75.9 153.7 L 75.5 153.6 L 74.8 153.4 L 74.1 153.1 L 72.9 152.1 L 70.5 150.2 L 73 142.9 L 73.5 141.6 L 74.3 139.3 L 74.6 138.3 L 75.3 136.7 L 75.6 135.9 L 76.3 134.8 L 76.7 134.3 L 77.7 133.6 L 78.2 133.3 L 79.5 133 L 80.2 132.8 L 82 132.7 L 83 132.7 L 85.5 132.7 L 90.2 132.9 L 92 132.9 L 95.3 133 L 96.9 133.1 L 99.8 133.2 L 101.2 133.2 L 103.8 133.3 L 105 133.3 L 107.2 133.3 L 108.3 133.4 L 110.2 133.4 L 111.1 133.4 L 112.7 133.4 L 114.3 133.4 L 116.8 133.3 L 117.9 133.2 L 119.8 133 L 120.6 132.8 L 122.1 132.5 L 126.3 130.8 L 127 130.4 L 128.5 129.8 L 129.2 129.5 L 130.3 129.1 L 130.8 128.9 L 131.6 128.8 M 20.2 119.9 L 20.8 120.2 L 21.1 120.4 L 21.7 121 L 22 121.3 L 22.7 122.3 L 23.8 124 L 24.2 124.6 L 24.8 125.6 L 25.1 126.1 L 25.5 126.8 L 25.9 127.5 L 26.2 128.3 L 26.3 128.6 L 25.9 128.9 L 24.7 128.9 L 24.4 128.9 L 23.5 128.8 L 23 128.7 L 21.8 128.4 L 20.5 128.1 L 17.7 127.3 L 12.9 125.7 L 15.2 123.3 L 15.8 122.7 L 16.7 121.7 L 17.2 121.3 L 17.9 120.6 L 18.3 120.3 L 19 120 L 19.3 119.9 L 19.9 119.8 M 65.9 75.2 L 68.3 75.5 L 69.4 75.7 L 71.5 76 L 72.4 76.2 L 74.1 76.7 L 75.8 77.1 L 78.5 78.3 L 79.8 79 L 82.4 81 L 83 81.5 L 84.5 82.8 L 86.8 85.2 L 87.7 86.1 L 89.5 87.8 L 90.3 88.6 L 91.8 90 L 92.5 90.6 L 93.6 91.5 L 94.6 92 L 94.9 92 L 95.9 92.6 L 97.5 93.9 L 97.9 94.5 L 99.2 95.4 L 101 96.2 L 101.1 96.2 L 101.7 96.5 L 102 96.7 L 102.9 97.3 L 103.3 97.6 L 104.5 98.4 L 105.1 98.9 L 106.6 99.9 L 108 101 L 111.6 103.8 L 117.4 108.5 L 131.9 120.5 L 128.7 122.5 L 128 122.9 L 126.7 123.5 L 126 123.8 L 124.2 124.1 L 123.7 124.2 L 122.5 124.2 L 121.9 124.3 L 120.4 124.3 L 119.6 124.3 L 117.8 124.3 L 114.5 124.2 L 112.8 124.1 L 109.6 124 L 108.1 124 L 105.3 123.9 L 103.9 123.9 L 101.4 123.8 L 100.2 123.8 L 98 123.7 L 96.9 123.7 L 95 123.7 L 94.1 123.7 L 92.4 123.7 L 90.8 123.7 L 88.3 123.7 L 87.1 123.8 L 85.3 123.9 L 84.5 124 L 83.1 124.2 L 82.5 124.3 L 81.5 124.6 L 80.3 125.2 L 79.5 125.6 L 78.5 126.1 L 78 126.3 L 77.5 126.3 L 77.3 126.3 L 77.1 126 L 77 125.8 L 77 125.1 L 77 124.8 L 76.8 123.8 L 76.6 123.3 L 76.2 122.1 L 75.7 120.8 L 74.2 117.9 L 73.5 116.5 L 71.9 114.1 L 71.5 113.6 L 70.8 112.7 L 69.9 112 L 69.7 111.8 L 68.9 111.1 L 68.5 110.7 L 67.4 109.6 L 64 105.2 L 63 103.7 L 60.4 100.1 L 59.7 99.3 L 58.5 97.8 L 57 95.9 L 54 92.3 L 62.3 91.2 L 64.5 90.8 L 69 90.3 L 70.1 90.2 L 71.8 90.1 L 73.8 90 L 74.7 90 L 76 89.7 L 76.5 89.5 L 76.9 88.8 L 77 88.3 L 76.6 87.1 L 75 84.7 L 74.5 84.1 L 73.2 83 L 72.5 82.5 L 70.8 81.6 L 69.9 81.2 L 67.8 80.5 L 64.4 79.8 L 63.9 79.7 L 63.3 79.6 L 63.1 79.5 L 62.8 79.1 L 62.7 78.9 L 62.8 78.4 L 63.1 77.2 L 63.3 76.6 L 63.7 75.9 L 63.9 75.6 L 64.5 75.3 L 64.9 75.2 M 137.8 108.5 L 139.9 109.5 L 143.8 111.3 L 144.7 111.8 L 146.2 112.4 L 147.7 113.1 L 148.3 113.3 L 149.1 113.7 L 149.4 113.8 L 149.7 114.2 L 149.7 114.4 L 149.4 114.9 L 148.5 116 L 148 116.6 L 146.9 117.4 L 145.6 118 L 145.4 118 L 144.6 117.5 L 144.1 117.1 L 142.8 116.1 L 142 115.5 L 140.3 114 L 139.4 113.2 L 137.5 111.5 L 130.5 104.9 M 44.7 100.4 L 45 100.6 L 45.8 101.4 L 46.2 101.8 L 47.3 102.9 L 48.9 104.7 L 52.9 109.5 L 50.8 111.7 L 50.1 112.4 L 49.1 113.3 L 48.6 113.7 L 47.6 113.8 L 47.1 113.9 L 45.9 113.4 L 45.2 113.1 L 43.5 112 L 42.7 111.5 L 41.4 110.4 L 41.1 110.1 L 40.8 109.7 L 40.5 109.3 L 40.5 109 L 40.7 108.3 L 40.8 107.9 L 41 107 L 41.3 106 L 42.1 103.9 L 42.5 102.8 L 43.3 101.2 L 43.4 100.8 L 43.7 100.3 L 44.1 100 L 44.2 100 M 37.8 96.5 L 38.8 96.7 L 40.1 97.2 L 40.7 97.5 L 41.3 98.4 L 41.3 98.6 L 41.4 99.2 L 41.4 99.6 L 41.2 100.4 L 41.1 100.8 L 40.8 101.9 L 40.2 103.8 L 39.8 105.1 L 38.9 107 L 38.5 107.8 L 37.7 108.7 L 37.3 109 L 36.6 108.8 L 36.4 108.7 L 36.1 108.3 L 35.9 108.1 L 35.6 107.4 L 35.5 107.2 L 35.4 106.4 L 35.3 106 L 35.2 104.8 L 35 100.8 L 35 100.2 L 35 99.2 L 35 98.7 L 35 97.9 L 35.1 97.2 L 35.4 96.5 L 35.5 96.2 L 36.2 96.2 Z" fill="#0f346e"/>
<path d="M 47.2 140.2 L 48.1 140.4 L 48.5 140.5 L 49.2 140.5 L 49.4 140.4 L 51.1 140.5 L 52.5 141 L 53.2 141.4 L 54.3 142.2 L 54.7 142.4 L 55.2 142.7 L 54 142.7 L 53 142.6 L 51.2 142.3 L 50.6 142.2 L 49.3 141.7 L 48.6 141.5 L 47 140.7 L 45.4 139.8 L 44.1 139 M 71.5 135 L 71.2 135.7 L 70.2 136.9 L 69.6 137.4 L 68.2 138.5 L 67.5 139.1 L 65.8 140 L 64.9 140.4 L 63 141.2 L 61.8 141.6 L 62.5 141.3 L 63.7 140.2 L 64 139.4 L 64.5 138.4 L 64.9 138 L 65.1 137.8 L 66.1 137.5 L 66.8 137.7 L 67.8 137.7 L 68.5 137.5 L 68.8 137.4 L 69.5 136.9 L 69.8 136.6 L 70.5 135.9 L 70.9 135.4 L 71.8 134.1 M 23.1 117.8 L 23.4 118.1 L 24.1 118.7 L 24.6 118.8 L 25.4 119.1 L 25.9 119.2 L 27.2 119.5 L 27.9 119.8 L 28.1 120.1 L 28.4 120.7 L 28.6 121.2 L 28.8 122.3 L 28.8 123 L 29.8 126.4 L 31 128.5 L 31.8 129.3 L 33.4 130.8 L 34.2 131.2 L 35.1 131.5 L 35.5 131.6 L 36.4 131.6 L 36.8 131.5 L 38 131.3 L 38.5 131.4 L 38.7 131.6 L 39.1 132.1 L 39.3 132.5 L 39.5 133.4 L 39.6 134 L 40.1 135.6 L 40.6 136.4 L 41 136.8 L 41.8 137.6 L 41.7 137.6 L 39.8 136.3 L 36.1 133.6 L 35.3 132.9 L 33.6 131.6 L 31.5 129.6 L 30.8 128.8 L 29.4 127.2 L 28.6 126.3 L 27.2 124.5 L 25.9 122.5 L 23.3 118.2 L 22.9 117.5 M 68.6 114.2 L 69.2 114.8 L 70.3 116 L 71.6 118.2 L 71.8 118.7 L 72.2 119.8 L 72.4 120.4 L 72.6 121.8 L 72.9 123.3 L 73 126.6 L 72.9 128.2 L 72.6 131.4 L 72.4 132.1 L 72.4 132.3 L 72.3 132 L 71.9 131.4 L 71.5 131 L 70.4 129.7 L 70.1 128.9 L 70.1 128.7 L 70.2 128.3 L 70.5 128.2 L 71.1 128 L 71.6 128 L 72.3 127.8 L 72.6 127.4 L 72.7 127.1 L 72.9 126.4 L 72.9 125.8 L 72.9 124.6 L 72.8 123.8 L 72.6 121.6 L 72.3 120.5 L 72.1 120.2 L 71.7 119.7 L 71.4 119.5 L 70.7 119.2 L 70.2 119.2 L 69 118.9 L 68.5 118.7 L 68.4 118.5 L 68.2 118 L 68.2 117.7 L 68.3 117 L 68.4 116.5 L 68.5 114.4 L 68.2 113.8 M 46 128.7 L 45.9 128.6 L 45.8 128.4 M 50.2 115.5 L 49.5 116.4 L 49.3 116.9 L 49 117.8 L 49 117.6 L 49.5 116.4 L 49.8 115.8 L 50.8 114.8 M 40.5 72 L 39.4 72.3 L 39 72.5 L 38.6 73 L 38.6 73.3 L 39 74.1 L 40.6 75.5 L 43.2 77.2 L 38.7 81.8 L 37.2 83.3 L 35 86.2 L 34 87.6 L 32.6 90.5 L 31.9 92 L 31.3 95.2 L 30.9 100.7 L 30.9 102 L 31.1 104.5 L 31.3 105.7 L 31.8 108.1 L 32.1 109.3 L 33 111.7 L 33.4 112.8 L 34.6 115.1 L 34.6 115.2 L 33.4 113.5 L 32.7 112.3 L 31.2 109.9 L 30.6 108.8 L 29.4 106.6 L 29 105.6 L 28.2 103.8 L 28 103 L 27.2 98.3 L 27 94.9 L 27.1 93.2 L 27.4 89.8 L 27.7 88.3 L 28.5 85.3 L 29 84.1 L 29.8 82.4 L 30.2 81.5 L 30.4 81.1 L 30.8 79.9 L 30.9 79.6 L 30.8 79.1 L 30.5 79.1 L 29.9 79 L 29.4 79 L 28.3 78.6 L 28.2 78 L 28.4 77.6 L 29.1 76.6 L 29.7 76.1 L 31 74.9 L 32 74.3 L 35.5 72.6 L 38 72 L 39.3 72 M 51.3 114.3 L 51.5 114.2 L 51.6 114 M 61.3 110.7 L 62.7 111 L 63.4 111.1 L 64.8 111.7 L 65.5 112 L 66.6 112.6 L 66.2 112.5 L 65.4 112.4 L 63.6 112.4 L 62.5 112.6 L 60.8 112.8 L 59.9 112.8 L 59.5 112.8 L 58.8 112.7 L 58.6 112.5 L 58.1 112.2 L 58 112 L 57.2 111.5 L 56.5 111.5 L 56.9 111.3 L 58.4 110.9 L 59.1 110.8 L 60.5 110.7 M 17.4 101 L 17.6 101.3 L 18.1 101.8 L 18.6 101.9 L 19.5 102 L 20.1 102 L 22 102.2 L 22.8 102.5 L 22.8 102.9 L 22.8 103.8 L 22.6 104.6 L 22.3 105.4 L 22.1 105.8 L 21.6 106.8 L 21.3 107.4 L 20.4 109.5 L 20.2 110.5 L 20.2 111 L 20.3 112 L 20.1 111.5 L 17.9 105 L 17.7 104.2 L 17.4 102.2 L 17.2 101 L 17.1 100.2 M 38.9 46.8 L 38.8 47.3 L 38.7 48.5 L 38.9 49.2 L 39.3 50.6 L 39.7 51.4 L 40.3 53 L 40.6 53.9 L 40.6 54.3 L 40.7 55.1 L 40.6 55.4 L 40.3 56 L 40.1 56.2 L 39.5 56.7 L 39.1 56.9 L 38.3 57.2 L 37.7 57.3 L 36.5 57.6 L 35.7 57.7 L 34.1 57.9 L 33.2 58 L 31 58.3 L 29.7 58.5 L 29.2 58.6 L 28.4 58.9 L 28.1 59.1 L 27.7 59.4 L 27.7 59.5 L 27.9 60.3 L 28.2 61.1 L 28.4 61.6 L 29.2 63.9 L 29.7 65.2 L 30.7 68.7 L 30.9 69.6 L 30.9 69.9 L 30.9 70.5 L 30.8 70.6 L 30.2 70.9 L 29.7 70.9 L 29.3 70.7 L 28.3 70.3 L 27.6 70 L 26.1 69.1 L 25 68.5 L 23.6 67.7 L 22.9 67.6 L 22.6 67.8 L 22.1 68.3 L 21.8 68.8 L 21.1 70.1 L 20.7 71.1 L 19.2 75 L 18.8 76.3 L 18.6 77 L 18.4 78.1 L 18.3 78.6 L 18.1 80.4 L 18.1 81.2 L 18.2 81.5 L 18.6 81.8 L 18.9 81.9 L 19.7 82 L 20.3 82 L 22.4 82.4 L 23.6 83 L 23.9 83.4 L 24.2 84.2 L 24.1 84.9 L 23.9 85.3 L 23.2 86.2 L 22.7 86.8 L 21.4 88 L 20.5 88.9 L 19.1 90.2 L 18.3 91 L 18 91.3 L 17 92.5 L 16.8 93 L 16.6 90.5 L 16.7 88.9 L 16.9 85.7 L 17.1 84.1 L 17.6 81 L 17.9 79.5 L 18.7 76.4 L 19.1 74.9 L 20.1 72 L 21.3 69 L 24.2 63.5 L 25.8 60.8 L 29.6 55.8 L 31.6 53.4 L 36.1 49 L 38.5 46.9 L 39 46.6 M 99.3 69.3 L 99.6 69.5 L 100.2 70.5 L 101.4 73 L 101.8 74 L 102.3 76.2 L 102.5 77.3 L 102.8 79.8 L 102.9 81 L 103 83.4 L 103 84.6 L 102.8 86.9 L 102.7 88 L 102.3 89.8 L 102.1 90.6 L 101.5 91.8 L 101.2 92.3 L 100.5 92.6 L 100.3 92.6 L 99.9 92.4 L 99.7 92.3 L 99.3 91.8 L 99 91.5 L 98.8 90.3 L 99 88.5 L 99.4 87.6 L 99.8 85.6 L 99.9 84.6 L 99.8 82.4 L 99.7 81.3 L 99.2 79.1 L 97.9 75.9 L 97.5 75.1 L 97 73.8 L 96.8 73.3 L 96.5 72.4 L 96.5 72 L 96.6 71.3 L 97.1 70.4 L 97.5 69.9 L 98.3 69.3 L 98.6 69.1 M 92.5 87.9 L 93 88.4 L 94 89.3 L 94.3 89.6 L 94.9 90 L 95 90 L 95 90 L 94.9 90 L 94.3 89.6 L 94 89.3 L 93 88.4 L 92.5 87.9 L 91.3 86.6 L 89.4 84.4 L 91.3 86.6 M 97.5 83.9 L 97 86.5 L 96.7 87.5 L 96.2 88.5 L 96.7 87.3 L 97 86.3 L 97.5 83.2 M 48.4 82 L 48.6 83.2 L 48.5 83.8 L 48.4 85 L 48.2 85.6 L 47.9 86.8 L 48.2 85.1 L 48.4 84.3 L 48.4 82.5 L 48.4 81.7 M 58.4 80.7 L 58.3 81.2 L 58.7 81.9 L 58.1 81.4 L 58.1 81 L 58.4 80.2 L 58.8 79.8 M 80.4 66.2 L 80.6 66.4 L 81.4 66.9 L 84.8 68.4 L 85.9 68.9 L 88.1 70 L 89.1 70.6 L 91 71.8 L 91.9 72.5 L 93.4 74 L 94.1 74.7 L 95.3 76.3 L 95.8 77.1 L 96.3 78.2 L 95.8 77.8 L 95.3 77.3 L 94.9 77.2 L 94.2 77 L 93.8 77 L 91.7 76.7 L 90.5 76.3 L 90.1 76 L 89.4 75.3 L 89.2 74.9 L 89 73.9 L 89 73.4 L 89.1 71.5 L 89 70.8 L 88.7 70.7 L 88 70.6 L 87.4 70.7 L 86 71.2 L 85 71.6 L 81.9 72.6 L 80.3 72.8 L 79.8 72.6 L 78.8 72.3 L 78.6 71.9 L 78.4 71 L 78.6 70.3 L 79.9 66.7 L 80.2 66.1 M 48.2 63.1 L 47.9 63.4 L 47.8 63.5 L 48 63.8 L 48.3 63.9 L 49.2 64.3 L 51.4 64.9 L 52.5 65.1 L 54.3 65.8 L 55.2 66.2 L 56.7 67.2 L 57.5 67.6 L 58.6 68.7 L 59.2 69.3 L 60 70.5 L 60.4 71.2 L 60.8 72.5 L 61 73.2 L 61 74.5 L 61 75.3 L 60.6 76.7 L 60 77.8 L 59.8 77.6 L 59.2 77.3 L 58.6 77.3 L 57.3 77.4 L 56.4 77.6 L 54.9 77.8 L 54.1 77.8 L 53.9 77.7 L 53.4 77.6 L 53.3 77.5 L 53.1 77.2 L 53.1 77 L 53.2 76.6 L 53.4 76.4 L 53.8 76 L 54.1 75.7 L 54.8 75.2 L 55.2 74.9 L 56.2 74.3 L 56.8 74.1 L 58.8 72.8 L 59.6 72 L 59.8 71.6 L 59.9 70.8 L 59.7 70.4 L 59.2 69.6 L 58.7 69.1 L 57.9 68.7 L 57.2 68.7 L 56.8 68.7 L 55.9 68.9 L 55.4 69.1 L 54.2 69.7 L 53.5 70 L 50.7 71.1 L 49.3 71.3 L 48.9 71.1 L 48.3 70.6 L 48.3 70.1 L 48.3 69.6 L 48.4 69.3 L 48.7 68.6 L 48.9 68.2 L 49.7 66.6 L 49.9 65.9 L 49.9 65.6 L 49.6 65.2 L 49.2 65.1 L 48.4 64.7 L 47.8 64.5 L 45.5 63.9 L 48 63.1 L 48.5 63 M 129.7 75.7 L 130.7 75.5 L 129.7 75.7 M 41.8 72.1 L 42.1 72.2 L 41.7 72.1 M 98.5 61 L 99.3 61.1 L 99.3 61.2 L 99.2 61.2 L 99.2 61.4 L 99.4 62.8 L 99.5 63.1 L 99.5 63.8 L 99.4 64.1 L 99.1 64.9 L 98.9 65.3 L 98.3 66.1 L 97 67.5 L 94 70.4 L 89 67.9 L 88.3 67.6 L 87.1 67 L 86.5 66.6 L 85.5 66.1 L 85.5 66 L 86.2 66.3 L 87.1 66.5 L 88.7 66.8 L 89.7 66.7 L 90.1 66.6 L 91 66.2 L 91.4 65.9 L 92.3 65.2 L 92.8 64.7 L 94.7 63.1 L 95.7 62.3 L 96.1 61.9 L 97 61.4 L 97.4 61.3 L 98.2 61 M 66.5 60.4 L 64.8 62.9 L 64.4 63.4 L 63.9 64.5 L 63.4 66 L 62.8 68.9 L 59.2 65.3 L 57.4 64.2 L 56.4 63.6 L 54.6 63 L 55 63 L 56.7 63.3 L 62.9 64.4 L 67.2 59.6 M 65.5 68.7 L 65.5 68.6 L 65.5 68.6 M 65.2 66.6 L 65.1 67.1 L 65.2 67.5 L 65 66.8 L 65 66.5 L 65.4 65.7 L 65.4 65.5 M 89.7 61 L 89 61.5 L 87 62.7 L 85.9 63.4 L 85.5 63.8 L 84.7 64.4 L 84.4 64.6 L 84 65 L 84 65 L 84 64.9 L 84.4 64.5 L 84.7 64.3 L 85.5 63.7 L 85.9 63.4 L 87 62.6 L 89 61.5 L 89.7 61 M 85.8 60.3 L 85 60.9 L 83.6 62 L 82.9 62.5 L 82.3 63.1 L 82.7 62.6 L 83.5 61.9 L 85.4 60.5 L 85.9 60.2 M 73.7 54.2 L 74.2 54.6 L 74.5 54.9 L 75.8 56.1 L 76.5 56.8 L 77.8 58.4 L 78.3 59.1 L 78.7 59.8 L 78.8 60 L 79 60.6 L 79 60.7 L 78.7 61.7 L 78.2 62 L 77.8 61.9 L 76.8 61.8 L 76.2 61.5 L 74.7 60.9 L 73.8 60.4 L 71.9 59.5 L 71 59.3 L 70.7 59.4 L 69.9 59.7 L 69.6 60 L 69.6 60 L 70.3 59.2 L 71.5 57.9 L 72 57.3 L 72.6 56.3 L 72.9 55.9 L 73.1 55.3 L 72.8 55 L 72.5 55 L 71.7 55.3 L 71.3 55.5 L 70.4 56.2 L 69.8 56.8 L 70.6 56 L 71.1 55.5 L 72 54.7 L 72.3 54.4 L 72.9 54 L 73 54 M 93.6 58 L 93 58.6 L 92.5 59 L 91.5 59.8 L 90.9 60.2 L 90.5 60.5 L 91.8 59.5 L 92.6 58.9 L 93.6 57.8 L 93.9 57.4 M 53.7 38.2 L 52.9 39 L 52.6 39.6 L 52.5 39.9 L 52.5 40.7 L 52.6 41.3 L 52.9 42.5 L 53.2 43.3 L 53.7 45.2 L 53.8 46.3 L 53.8 46.7 L 53.8 47.5 L 53.7 47.7 L 53.4 48.2 L 53.2 48.4 L 52.7 48.6 L 52.4 48.6 L 51.7 48.5 L 51.3 48.3 L 50.4 48 L 49.9 47.7 L 48.7 47 L 48.1 46.6 L 45.8 45.2 L 44.3 44.7 L 43.6 44.5 L 42.4 44.4 L 42.1 44.4 L 43.8 43.2 L 46.6 41.5 L 52.5 38.6 L 54 38 L 54.2 37.9 M 79 34.3 L 80.8 34.4 L 83.8 34.6 L 85.2 34.7 L 87.4 34.9 L 88.5 35 L 90.1 35.2 L 90.8 35.4 L 91.9 35.7 L 92.3 35.8 L 91.4 35.6 L 90.6 35.4 L 88.7 35.2 L 87.6 35.3 L 87.1 35.4 L 86.2 35.8 L 85.7 36.1 L 84.7 36.8 L 84 37.3 L 81 39.3 L 79.8 39.9 L 79.3 40.1 L 78.3 40.4 L 77.8 40.5 L 76 40.8 L 75 40.7 L 74.6 40.5 L 73.7 39.9 L 73.2 39.4 L 72.1 38.3 L 71.3 37.4 L 70 35.9 L 69.2 35.2 L 68.9 34.9 L 68.3 34.5 L 68 34.5 L 67.5 34.4 L 67.3 34.5 L 66.9 34.9 L 66.7 35.2 L 66.4 35.9 L 66.3 36.4 L 66.1 37.4 L 66 38.1 L 65.9 39.5 L 65.8 40.4 L 65.3 44 L 65 44.8 L 64.9 45.1 L 64.6 45.6 L 64.5 45.6 L 63.9 45.4 L 63.3 44.9 L 62.9 44.6 L 61.3 42.9 L 60.5 41.8 L 59.3 40.2 L 58.6 39.3 L 58.3 39 L 57.2 37.8 L 56.7 37.6 L 55.9 37.3 L 57.1 36.8 L 62 35.4 L 63.2 35.1 L 65.6 34.6 L 66.8 34.4 L 69.4 34.2 L 70.7 34.1 L 73.7 34.1 M 93.4 39.6 L 93.4 39.8 L 93.4 39.6 M 70.8 72.4 L 71.5 72.7 L 72.5 73 L 71.3 72.6 M 94.9 42.2 L 94.7 42.4 L 94 43 L 93.7 42.9 L 93.6 42.8 L 93.7 42.9 L 94 43 L 94.7 42.4 L 95.9 40.3 L 95.3 41.5 Z" fill="#125b28"/>
<path d="M 121.6 20.6 L 122.2 21 L 123.4 22.4 L 124.1 23.2 L 125.5 25.4 L 127.9 29.8 L 128.3 30.6 L 128.9 31.9 L 129.2 32.6 L 129.4 33.6 L 129.5 34 L 129.4 34.9 L 129 36.1 L 128.5 36.9 L 128.2 38.8 L 128.2 39.7 L 128.6 41.5 L 128.9 42.4 L 130 43.8 L 132.1 45.4 L 132.8 45.6 L 133.7 46.2 L 134.1 46.5 L 134.9 47.5 L 135.2 48 L 135.9 49.6 L 137 52.8 L 137.3 53.8 L 137.8 55.5 L 138.1 56.3 L 138.4 57.7 L 138.6 58.3 L 138.8 59.4 L 138.8 59.9 L 138.9 60.7 L 138.9 61.5 L 138.4 62.5 L 137 63.8 L 136.4 64.2 L 135.5 65.5 L 135 68 L 135 71 L 129.7 68 L 128.4 67.3 L 126.2 66.2 L 125.1 65.7 L 123.4 65.2 L 122.6 65 L 121.6 65 L 121 65.8 L 121 65.8 L 121.3 66.2 L 121.6 66.4 L 122.3 66.8 L 125.4 68.3 L 126.6 68.8 L 129.1 70.3 L 129.7 70.6 L 130.8 71.4 L 132 72.5 L 134.2 74.9 L 130.7 75.5 L 129.7 75.7 L 127.5 75.8 L 126.4 75.8 L 124.2 75.6 L 123 75.4 L 120.7 74.9 L 119.5 74.6 L 117.1 73.7 L 115.9 73.2 L 113.6 72.1 L 112.4 71.5 L 110.2 70.1 L 109.1 69.3 L 107 67.7 L 104 65 L 103.4 64.3 L 102.3 63.3 L 101.8 62.8 L 100.9 62 L 100.4 61.7 L 99.7 61.3 L 99.3 61.1 L 98.5 61 L 98.2 61 L 97.4 61.3 L 97 61.4 L 96.1 61.9 L 95.7 62.3 L 94.7 63.1 L 92.8 64.7 L 92.3 65.2 L 91.4 65.9 L 91 66.2 L 90.1 66.6 L 89.7 66.7 L 88.7 66.8 L 87.1 66.5 L 86.2 66.3 L 84.9 65.8 L 84.6 65.7 L 84.2 65.5 L 84 65.1 L 84 65 L 84.4 64.6 L 84.7 64.4 L 85.5 63.8 L 85.9 63.4 L 87 62.7 L 89 61.5 L 89.7 61 L 90.9 60.2 L 91.5 59.8 L 92.5 59 L 93 58.6 L 93.6 58 L 94 57.3 L 94 56.8 L 93.7 56.3 L 93.5 56.1 L 92.6 56.3 L 92.3 56.3 L 91.6 56.7 L 91.3 56.8 L 90.4 57.4 L 89.9 57.6 L 88.7 58.4 L 86.7 59.7 L 85.4 60.5 L 83.5 61.9 L 82.7 62.6 L 81.4 64.1 L 80.9 64.8 L 79.9 66.7 L 78.6 70.3 L 78.4 71 L 78.6 71.9 L 78.8 72.3 L 79.8 72.6 L 80.3 72.8 L 81.9 72.6 L 85 71.6 L 86 71.2 L 87.4 70.7 L 88 70.6 L 88.7 70.7 L 89 70.8 L 89.1 71.5 L 89 73.4 L 89 73.9 L 89.2 74.9 L 89.4 75.3 L 90.1 76 L 90.5 76.3 L 91.7 76.7 L 93.8 77 L 94.2 77 L 94.9 77.2 L 95.3 77.3 L 95.8 77.8 L 96.4 78.2 L 97.2 79.8 L 97.5 80.6 L 97.6 82.7 L 97 86.3 L 96.7 87.3 L 96 88.9 L 95.8 89.2 L 95.5 89.7 L 95 90 L 94.9 90 L 94.3 89.6 L 94 89.3 L 93 88.4 L 92.5 87.9 L 91.3 86.6 L 89.4 84.4 L 88.2 83 L 85.6 80.5 L 84.3 79.3 L 81.6 77.3 L 80.2 76.4 L 77.3 74.8 L 72.5 73 L 71.5 72.7 L 69.8 72 L 69 71.7 L 67.8 71 L 67.2 70.6 L 66.3 69.8 L 65.9 69.4 L 65.4 68.5 L 65.2 68 L 65.1 67.1 L 65.2 66.6 L 65.5 65.5 L 65.7 64.9 L 66.3 63.8 L 67.8 61.9 L 68.5 61.1 L 69.5 60.1 L 69.9 59.7 L 70.7 59.4 L 71 59.3 L 71.9 59.5 L 73.8 60.4 L 74.7 60.9 L 76.2 61.5 L 76.8 61.8 L 77.8 61.9 L 78.2 62 L 78.7 61.7 L 79 60.7 L 79 60.6 L 78.8 60 L 78.7 59.8 L 78.3 59.1 L 77.8 58.4 L 76.5 56.8 L 75.8 56.1 L 74.5 54.9 L 74.2 54.6 L 73.7 54.2 L 73 54 L 72.9 54 L 72.3 54.4 L 72 54.7 L 71.1 55.5 L 70.6 56 L 69.4 57.2 L 67.5 59.2 L 62.9 64.4 L 56.7 63.3 L 55 63 L 51.6 62.8 L 50.8 62.8 L 49.5 62.9 L 48 63.1 L 45.5 63.9 L 47.8 64.5 L 48.4 64.7 L 49.2 65.1 L 49.6 65.2 L 49.9 65.6 L 49.9 65.9 L 49.7 66.6 L 48.9 68.2 L 48.7 68.6 L 48.4 69.3 L 48.3 69.6 L 48.3 70.1 L 48.3 70.6 L 48.9 71.1 L 49.3 71.3 L 50.7 71.1 L 53.5 70 L 54.2 69.7 L 55.4 69.1 L 55.9 68.9 L 56.8 68.7 L 57.2 68.7 L 57.9 68.7 L 58.7 69.1 L 59.2 69.6 L 59.7 70.4 L 59.9 70.8 L 59.8 71.6 L 59.6 72 L 58.8 72.8 L 56.8 74.1 L 56.2 74.3 L 55.2 74.9 L 54.8 75.2 L 54.1 75.7 L 53.8 76 L 53.4 76.4 L 53.2 76.6 L 53.1 77 L 53.1 77.2 L 53.3 77.5 L 53.4 77.6 L 53.9 77.7 L 54.1 77.8 L 54.9 77.8 L 56.4 77.6 L 57.3 77.4 L 58.6 77.3 L 59.2 77.3 L 59.8 77.6 L 60 77.8 L 59.9 78.4 L 58.9 79.7 L 58.4 80.2 L 58.1 81 L 58.1 81.4 L 58.8 82 L 59.2 82.2 L 60.7 82.5 L 63.9 82.7 L 65.1 82.7 L 67.7 83.1 L 69 83.4 L 71.1 84.2 L 71.6 84.4 L 72.4 84.9 L 72.8 85.1 L 73.3 85.6 L 73.5 85.9 L 73.7 86.3 L 73.4 86.9 L 73.3 87 L 73 87.1 L 72.8 87.2 L 72.2 87.3 L 71.6 87.5 L 69.7 87.8 L 68.6 88 L 66.1 88.4 L 62 88.9 L 60.6 89.1 L 57.7 89.4 L 56.3 89.6 L 53.8 90 L 52.6 90.1 L 50.6 90.4 L 48.8 90.7 L 46 91.3 L 47.5 87.6 L 47.8 86.8 L 48.2 85.6 L 48.4 85 L 48.5 83.8 L 48.6 83.2 L 48.4 82 L 47.9 79.7 L 47.6 78.5 L 46.7 76.2 L 46.4 75.7 L 46 74.8 L 45.3 73.8 L 45 73.4 L 44.2 72.9 L 43.8 72.7 L 42.8 72.3 L 41.8 72.1 L 39.3 72 L 38 72 L 35.5 72.6 L 32 74.3 L 31 74.9 L 29.7 76.1 L 29.1 76.6 L 28.4 77.6 L 28.2 78 L 28.3 78.6 L 29.4 79 L 29.9 79 L 30.5 79.1 L 30.8 79.1 L 30.9 79.6 L 30.8 79.9 L 30.4 81.1 L 30.2 81.5 L 29.8 82.4 L 29 84.1 L 28.5 85.3 L 27.7 88.3 L 27.4 89.8 L 27.1 93.2 L 27 94.9 L 27.2 98.3 L 28 103 L 28.2 103.8 L 29 105.6 L 29.4 106.6 L 30.6 108.8 L 31.2 109.9 L 32.7 112.3 L 33.4 113.5 L 35.1 115.9 L 36.9 118.4 L 40.6 123 L 41.5 124.1 L 43.3 126.1 L 45.9 128.6 L 46.6 129.2 L 47.7 130.1 L 48.3 130.6 L 49.2 131.4 L 50.2 132.1 L 51.7 133 L 52.4 133.4 L 53.8 133.8 L 56 134 L 56.8 134 L 58.2 133.7 L 58.9 133.5 L 60.1 132.9 L 60.7 132.6 L 61.7 131.7 L 62.2 131.2 L 62.9 130.1 L 63.3 129.5 L 63.7 128.2 L 63.9 127.5 L 64 126.2 L 64 125.5 L 63.8 124 L 63 121.9 L 62.7 121.5 L 62 120.9 L 61.7 120.6 L 60.8 120.3 L 60.3 120.2 L 59.3 120.1 L 58.8 120.1 L 57.8 120.3 L 57.3 120.4 L 56.4 120.8 L 55.9 121 L 55.1 121.6 L 54.8 121.9 L 54.3 122.7 L 54 124 L 54 124.5 L 54 125.1 L 54.1 125.4 L 54.3 125.5 L 54.4 125.5 L 54.9 125.1 L 56 124 L 56.7 123.3 L 57.9 122.5 L 58.5 122.2 L 59.5 122.1 L 60 122.2 L 60.8 122.8 L 61.6 124.5 L 61.8 125.4 L 61.6 127.2 L 61.4 128.1 L 60.5 129.6 L 60 130.3 L 58.6 131.3 L 56.1 132 L 55.6 132 L 54.5 131.8 L 54 131.6 L 52.9 131.2 L 51.9 130.7 L 50 129.1 L 49.1 128.2 L 47.8 126.2 L 47.6 125.7 L 47.2 124.6 L 47 123.1 L 47 122.3 L 47.3 120.9 L 47.4 120.6 L 47.6 120.2 L 47.7 119.7 L 47.9 119.2 L 48 118.8 L 48.6 118.2 L 49 117.8 L 49.3 116.9 L 49.5 116.4 L 50.2 115.5 L 50.9 114.6 L 53 113 L 53.5 112.7 L 54.5 112.1 L 55 111.8 L 56 111.5 L 56.5 111.5 L 57.2 111.5 L 58 112 L 58.1 112.2 L 58.6 112.5 L 58.8 112.7 L 59.5 112.8 L 59.9 112.8 L 60.8 112.8 L 62.5 112.6 L 63.6 112.4 L 65.4 112.4 L 66.2 112.5 L 67.4 113 L 67.9 113.3 L 68.5 114.4 L 68.4 116.5 L 68.3 117 L 68.2 117.7 L 68.2 118 L 68.4 118.5 L 68.5 118.7 L 69 118.9 L 70.2 119.2 L 70.7 119.2 L 71.4 119.5 L 71.7 119.7 L 72.1 120.2 L 72.3 120.5 L 72.6 121.6 L 72.8 123.8 L 72.9 124.6 L 72.9 125.8 L 72.9 126.4 L 72.7 127.1 L 72.6 127.4 L 72.3 127.8 L 71.6 128 L 71.1 128 L 70.5 128.2 L 70.2 128.3 L 70.1 128.7 L 70.1 128.9 L 70.4 129.7 L 71.5 131 L 71.9 131.4 L 72.3 132 L 72.4 132.3 L 72.4 132.9 L 72.4 133.2 L 72 133.9 L 70.9 135.4 L 70.5 135.9 L 69.8 136.6 L 69.5 136.9 L 68.8 137.4 L 68.5 137.5 L 67.8 137.7 L 66.8 137.7 L 66.1 137.5 L 65.1 137.8 L 64.9 138 L 64.5 138.4 L 64 139.4 L 63.7 140.2 L 62.5 141.3 L 60 142.4 L 58.9 142.6 L 57.5 142.8 L 56.8 142.9 L 55.9 142.9 L 55.5 142.8 L 54.7 142.4 L 54.3 142.2 L 53.2 141.4 L 52.5 141 L 51.1 140.5 L 49.4 140.4 L 49.2 140.5 L 48.5 140.5 L 48.1 140.4 L 47.2 140.2 L 44.1 139 L 43.4 138.7 L 42.3 138 L 41.8 137.6 L 41 136.8 L 40.6 136.4 L 40.1 135.6 L 39.6 134 L 39.5 133.4 L 39.3 132.5 L 39.1 132.1 L 38.7 131.6 L 38.5 131.4 L 38 131.3 L 36.8 131.5 L 36.4 131.6 L 35.5 131.6 L 35.1 131.5 L 34.2 131.2 L 33.4 130.8 L 31.8 129.3 L 31 128.5 L 29.8 126.4 L 28.8 123 L 28.8 122.3 L 28.6 121.2 L 28.4 120.7 L 28.1 120.1 L 27.9 119.8 L 27.2 119.5 L 25.9 119.2 L 25.4 119.1 L 24.6 118.8 L 24.1 118.7 L 23.4 118.1 L 23.1 117.8 L 22.4 116.8 L 21.5 114.9 L 21 114 L 20.5 112.6 L 20.3 112 L 20.2 111 L 20.2 110.5 L 20.4 109.5 L 21.3 107.4 L 21.6 106.8 L 22.1 105.8 L 22.3 105.4 L 22.6 104.6 L 22.8 103.8 L 22.8 102.9 L 22.8 102.5 L 22 102.2 L 20.1 102 L 19.5 102 L 18.6 101.9 L 18.1 101.8 L 17.6 101.3 L 17.4 101 L 17.1 100 L 16.7 97.5 L 16.5 96.4 L 16.4 94.9 L 16.4 94.2 L 16.7 93 L 17 92.5 L 18 91.3 L 18.3 91 L 19.1 90.2 L 20.5 88.9 L 21.4 88 L 22.7 86.8 L 23.2 86.2 L 23.9 85.3 L 24.1 84.9 L 24.2 84.2 L 23.9 83.4 L 23.6 83 L 22.4 82.4 L 20.3 82 L 19.7 82 L 18.9 81.9 L 18.6 81.8 L 18.2 81.5 L 18.1 81.2 L 18.1 80.4 L 18.3 78.6 L 18.4 78.1 L 18.6 77 L 18.8 76.3 L 19.2 75 L 20.7 71.1 L 21.1 70.1 L 21.8 68.8 L 22.1 68.3 L 22.6 67.8 L 22.9 67.6 L 23.6 67.7 L 25 68.5 L 26.1 69.1 L 27.6 70 L 28.3 70.3 L 29.3 70.7 L 29.7 70.9 L 30.2 70.9 L 30.8 70.6 L 30.9 70.5 L 30.9 69.9 L 30.9 69.6 L 30.7 68.7 L 29.7 65.2 L 29.2 63.9 L 28.4 61.6 L 28.2 61.1 L 27.9 60.3 L 27.7 59.5 L 27.7 59.4 L 28.1 59.1 L 28.4 58.9 L 29.2 58.6 L 29.7 58.5 L 31 58.3 L 33.2 58 L 34.1 57.9 L 35.7 57.7 L 36.5 57.6 L 37.7 57.3 L 38.3 57.2 L 39.1 56.9 L 39.5 56.7 L 40.1 56.2 L 40.3 56 L 40.6 55.4 L 40.7 55.1 L 40.6 54.3 L 40.6 53.9 L 40.3 53 L 39.7 51.4 L 39.3 50.6 L 38.9 49.2 L 38.7 48.5 L 38.8 47.3 L 38.9 46.8 L 39.3 45.9 L 39.5 45.5 L 40.3 44.9 L 40.7 44.7 L 41.8 44.5 L 42.4 44.4 L 43.6 44.5 L 44.3 44.7 L 45.8 45.2 L 48.1 46.6 L 48.7 47 L 49.9 47.7 L 50.4 48 L 51.3 48.3 L 51.7 48.5 L 52.4 48.6 L 52.7 48.6 L 53.2 48.4 L 53.4 48.2 L 53.7 47.7 L 53.8 47.5 L 53.8 46.7 L 53.8 46.3 L 53.7 45.2 L 53.2 43.3 L 52.9 42.5 L 52.6 41.3 L 52.5 40.7 L 52.5 39.9 L 52.6 39.6 L 52.9 39 L 53.7 38.2 L 54.3 37.8 L 55.3 37.4 L 55.8 37.3 L 56.7 37.6 L 57.2 37.8 L 58.3 39 L 58.6 39.3 L 59.3 40.2 L 60.5 41.8 L 61.3 42.9 L 62.9 44.6 L 63.3 44.9 L 63.9 45.4 L 64.5 45.6 L 64.6 45.6 L 64.9 45.1 L 65 44.8 L 65.3 44 L 65.8 40.4 L 65.9 39.5 L 66 38.1 L 66.1 37.4 L 66.3 36.4 L 66.4 35.9 L 66.7 35.2 L 66.9 34.9 L 67.3 34.5 L 67.5 34.4 L 68 34.5 L 68.3 34.5 L 68.9 34.9 L 69.2 35.2 L 70 35.9 L 71.3 37.4 L 72.1 38.3 L 73.2 39.4 L 73.7 39.9 L 74.6 40.5 L 75 40.7 L 76 40.8 L 77.8 40.5 L 78.3 40.4 L 79.3 40.1 L 79.8 39.9 L 81 39.3 L 84 37.3 L 84.7 36.8 L 85.7 36.1 L 86.2 35.8 L 87.1 35.4 L 87.6 35.3 L 88.7 35.2 L 90.6 35.4 L 91.4 35.6 L 92.5 35.9 L 93 36 L 93.5 36.5 L 93.7 36.8 L 93.7 37.6 L 93.4 39.5 L 93.3 40.1 L 93.2 40.9 L 93.2 41.3 L 93.2 42 L 93.3 42.5 L 93.7 42.9 L 94 43 L 94.7 42.4 L 94.9 42.2 L 95.3 41.5 L 95.9 40.3 L 96.5 39 L 98.2 36.4 L 99.1 35.1 L 101.4 32.6 L 102.6 31.3 L 105.5 28.8 L 110.6 25 L 111.7 24.3 L 113.7 23.1 L 114.7 22.5 L 116.5 21.5 L 117.3 21 L 118.7 20.4 L 120 20 L 120.5 20 M 120.4 41.5 L 119.6 41.6 L 118 42.3 L 117.3 42.7 L 116 43.7 L 115.4 44.3 L 114.5 45.6 L 114 46.4 L 113.4 47.9 L 113.2 48.7 L 113 50.3 L 112.9 51.1 L 113.2 52.8 L 113.3 53.6 L 114 55.2 L 115.5 57.4 L 116.2 58.1 L 117.9 59.2 L 118.8 59.6 L 120.8 60 L 121.9 60.1 L 123.9 59.8 L 124.9 59.5 L 126.7 58.5 L 127.5 57.9 L 128.8 56.2 L 129.4 55.4 L 130.1 53.3 L 130.4 52.2 L 130.4 50 L 129.6 46.7 L 129.2 45.6 L 128.1 43.9 L 127.4 43.1 L 126 42.1 L 125.2 41.7 L 123.5 41.3 Z" fill="#30a754"/>
    <ellipse cx="121.7" cy="50.5" rx="6.8" ry="8" fill="#84ca94"/>
    <ellipse cx="123.6" cy="52.6" rx="3.5" ry="3.7" fill="#000000"/>
    <ellipse cx="124.1" cy="53.1" rx="1.2" ry="1.3" fill="#ffffff"/>
    <path d="M 107.4 91.5 C 107.4 91.5 104.9 91.8 104.9 91.8 S 103.6 94 103.6 94 S 106.8 93.8 106.8 93.8 S 108.9 94.2 108.9 94.2 S 110.7 95.6 110.7 95.6 S 112.1 97.8 112.1 97.8 S 112.4 100.6 112.4 100.6 S 115.3 103.2 115.3 103.2 S 115.3 99.6 115.3 99.6 S 114.7 96.9 114.7 96.9 S 113.5 94.6 113.5 94.6 S 112.1 93.2 112.1 93.2 S 109.6 92.1 109.6 92.1" fill="#2fe944"/>
    <path d="M 122.9 102.4 C 123.8 105.2 123.3 109.7 123.3 109.7 S 122.1 104.1 122.1 104.1 S 121.7 99.1 121.7 99.1" fill="#2fe944"/>
    <path d="M 118.5 51.6 C 118.5 51.6 119.5 50.7 119.5 50.7 S 116.2 50 116.2 50 S 115.7 52.1 115.7 52.1" fill="#000000"/>
    <path d="M 123.1 43.6 C 123.1 43.6 123.9 47.5 123.9 47.5 S 122.6 47.4 122.6 47.4 S 122.1 44.8 122.1 44.8" fill="#000000"/>
</svg>
