<svg xmlns="http://www.w3.org/2000/svg"
    version="1.1"
    viewBox="0 0 344 60"
    class="diagram"
    text-anchor="middle"
    font-family="monospace"
    font-size="13px"
    stroke-linecap="round"
    style="background-color: #555; width: 100%; height: auto;"
    preserveAspectRatio="xMidYMid meet"
>
  <path d="M 32,28 L 32,52" fill="none" stroke="black" />
  <path d="M 36,52 L 52,52" fill="none" stroke="black" />
  <path d="M 44,36 L 52,52" fill="none" stroke="black" />
  <path d="M 52,36 L 60,52" fill="none" stroke="black" />
  <path d="M 84,20 L 100,52" fill="none" stroke="black" />
  <path d="M 132,36 L 140,52" fill="none" stroke="black" />
  <path d="M 212,20 L 228,52" fill="none" stroke="black" />
  <path d="M 4,52 L 28,4" fill="none" stroke="black" />
  <path d="M 20,52 L 32,28" fill="none" stroke="black" />
  <path d="M 48,20 L 64,5" fill="none" stroke="black" />
  <path d="M 52,35 L 59,20" fill="none" stroke="black" />
  <path d="M 84,52 L 100,20" fill="none" stroke="black" />
  <path d="M 124,20 L 132,4" fill="none" stroke="black" />
  <path d="M 124,52 L 148,4" fill="none" stroke="black" />
  <path d="M 164,52 L 180,20" fill="none" stroke="black" />
  <path d="M 212,52 L 228,20" fill="none" stroke="black" />
  <path d="M 252,52 L 268,20" fill="none" stroke="black" />
  <path d="M 28,4 L 42,4" fill="none" stroke="black" />
  <path d="M 50,4 L 64,4" fill="none" stroke="black" />
  <path d="M 132,4 L 148,4" fill="none" stroke="black" />
  <path d="M 60,20 L 84,20" fill="none" stroke="black" />
  <path d="M 100,20 L 124,20" fill="none" stroke="black" />
  <path d="M 140,20 L 164,20" fill="none" stroke="black" />
  <path d="M 172,20 L 200,20" fill="none" stroke="black" />
  <path d="M 228,20 L 252,20" fill="none" stroke="black" />
  <path d="M 60,52 L 84,52" fill="none" stroke="black" />
  <g class="text">
    <text x="40" y="16">/</text>
    <text x="56" y="16">_</text>
    <text x="208" y="16">_</text>
    <text x="264" y="16">_</text>
    <text x="38" y="32">&lt;</text>
    <text x="72" y="32">_</text>
    <text x="112" y="32">_</text>
    <text x="160" y="32">_ `</text>
    <text x="200" y="32">'</text>
    <text x="248" y="32">_ `</text>
    <text x="16" y="48">_</text>
    <text x="112" y="48">_,_</text>
    <text x="152" y="48">_,_</text>
    <text x="192" y="48">_/_/_</text>
    <text x="240" y="48">_,_</text>
    <text x="304" y="52">EST. 2022</text>
  </g>
</svg>
