<svg xmlns="http://www.w3.org/2000/svg" version="1.1" width="600px" height="600px" style="fill-rule: evenodd; shape-rendering: geometricPrecision; text-rendering: geometricPrecision; image-rendering: optimizeQuality; clip-rule: evenodd" xmlns:xlink="http://www.w3.org/1999/xlink">
        <path transform="matrix(1.1,0,0,1.2,-27.8,-62.8)" d="M 450.6 190.9 C 450.6 190.9 422.4 172.2 422.4 172.2 S 494 145.1 494 145.5 S 387 151.3 387 151.3 S 311.5 105.9 311.5 105.9 S 321.2 161.3 321.5 161.3 S 307 175.5 307 175.9 S 298.7 158.4 298.7 158.4 S 173.2 126.8 173.2 126.8 S 62.4 281.8 62.4 281.8 S 176.5 491.3 176.5 491.3 S 367 518.8 367 518.8 S 424.5 428 424.5 428 S 329 350.1 329 350.1 S 265.7 381.3 265.7 381.3 S 295.2 446.8 295.2 446.8 S 314 429.7 314 429.7 S 308.2 403 308.2 403 S 326.2 398 326.2 398 S 362.7 437.6 362.7 437.6 S 329 476.3 329 476.3 S 217.7 425.5 217.7 425.5 S 196.5 345.5 196.5 345.5 S 229 383 229 383 S 304 342.2 304 342.2 S 279 329.7 279 329.7 S 241.5 350.1 241.5 350.1 S 206.5 281.8 206.5 281.8 S 147.4 285.5 147.4 285.5 S 158.2 367.6 158.2 367.6 S 126.9 270.1 126.9 270.1 S 157 262.2 157 262.2 S 141.5 246.3 141.5 246.3 S 178.2 179.7 178.2 179.7 S 261.5 208.4 261.5 208.4 S 249.5 213 249.5 213 S 178.7 194.7 178.7 194.7 S 158.2 248.8 158.2 248.8 S 248.2 298 248.2 298 S 250.2 320.9 250.2 320.9 S 262.7 321.8 262.7 321.8 S 272.7 297.6 272.7 297.6 S 289.5 295.5 289.5 295.5 S 216.2 245.9 216.2 245.9 S 268.7 254.7 268.7 254.7 S 291.2 238.4 291.2 238.4 S 300.2 270.9 300.2 270.9 S 412 297.6 412 297.6 S 463.6 273 463.6 273 S 472.7 218 472.7 218" fill="#04122a"/>
        <path transform="matrix(1.1,0,0,1.2,-29.4,-60.1)" d="M 447.2 172.7 C 447.2 172.7 418.9 154 418.9 154 S 490.6 126.9 490.6 127.3 S 383.5 133.1 383.5 133.1 S 308.1 87.7 308.1 87.7 S 317.7 143.1 318.1 143.1 S 303.5 157.3 303.5 157.7 S 295.2 140.2 295.2 140.2 S 169.7 108.6 169.7 108.6 S 58.9 263.6 58.9 263.6 S 173.1 473.1 173.1 473.1 S 363.5 500.6 363.5 500.6 S 421 409.8 421 409.8 S 325.6 331.9 325.6 331.9 S 262.2 363.1 262.2 363.1 S 291.8 428.6 291.8 428.6 S 310.6 411.5 310.6 411.5 S 304.7 384.8 304.7 384.8 S 322.7 379.8 322.7 379.8 S 359.3 419.4 359.3 419.4 S 325.6 458.1 325.6 458.1 S 214.3 407.3 214.3 407.3 S 193.1 327.3 193.1 327.3 S 225.6 364.8 225.6 364.8 S 300.6 324 300.6 324 S 275.6 311.5 275.6 311.5 S 238.1 331.9 238.1 331.9 S 203.1 263.6 203.1 263.6 S 143.9 267.3 143.9 267.3 S 154.7 349.4 154.7 349.4 S 123.5 251.9 123.5 251.9 S 153.5 244 153.5 244 S 138.1 228.1 138.1 228.1 S 174.7 161.5 174.7 161.5 S 258.1 190.2 258.1 190.2 S 246 194.8 246 194.8 S 175.2 176.5 175.2 176.5 S 154.7 230.6 154.7 230.6 S 244.7 279.8 244.7 279.8 S 246.8 302.7 246.8 302.7 S 259.3 303.6 259.3 303.6 S 269.3 279.4 269.3 279.4 S 286 277.3 286 277.3 S 212.7 227.7 212.7 227.7 S 265.2 236.5 265.2 236.5 S 287.7 220.2 287.7 220.2 S 296.8 252.7 296.8 252.7 S 408.5 279.4 408.5 279.4 S 460.2 254.8 460.2 254.8 S 469.3 199.8 469.3 199.8 S 539.7 168.6 539.7 168.6" fill="#30a754"/>
        <path transform="matrix(1.1,0,0,1.2,-38.4,-36)" d="M 360.9 147.1 C 360.9 147.1 340.9 157.5 340.9 157.5 S 341.4 188.2 341.4 188.2 S 398.4 210 398.4 210 S 407.1 203.8 407.1 203.8 S 425.4 213.8 425.4 213.8 S 425.9 201.3 425.9 201.3 S 359.1 122.8 359.1 122.8" fill="#04122a"/>
        <ellipse transform="matrix(1.1,0,0,1.2,-47.1,-44.2)" cx="465.7" cy="211.3" rx="8" ry="7.7" fill="#04122a"/>
        <ellipse transform="matrix(1.1,0,0,1.2,-38.5,-38.1)" cx="384.5" cy="179.5" rx="13.4" ry="14.4" fill="#ffffff"/>
        <rect transform="matrix(0.8,1,-0.9,0.8,587,-551)" x="291.2" y="496" width="60.3" height="10.2" fill="#04122a"/>
</svg>
